<svg xmlns="http://www.w3.org/2000/svg" viewBox="0 0 1114.98 287.09"><defs><style>.cls-1{fill:#f37e97;}.cls-2{fill:#4d505b;}</style></defs><title>Asset 2</title><g id="Layer_2" data-name="Layer 2"><g id="Logo"><path class="cls-1" d="M44.43,242c1.12,2.42,3.7,3.33,3.7-3.41,0-19.18,9.43-70.4,78.35-80.42,80.77-11.75,83.26-92.7,75.89-93.93s-10.3,50.46-91.42,59.05C36.06,131.18,24.49,198.85,44.43,242Z"/><path class="cls-1" d="M68.25,265.49c1.31,1.61,4.15,6.09,4.15-3.6,0-14.9,9.75-50.34,63.29-58.13,62.75-9.12,71.66-69.16,65.94-70.11s-25.85,37-78,43C65.51,183.37,48.78,241.55,68.25,265.49Z"/><path class="cls-1" d="M91.58,286.25a1.36,1.36,0,0,1-2.48.09C74,261.74,88.68,218,152.83,212.78,167.22,211.61,110.73,238.42,91.58,286.25Z"/><circle class="cls-1" cx="13.61" cy="195.64" r="11.17"/><circle class="cls-1" cx="16.67" cy="146.81" r="16.67"/><circle class="cls-1" cx="134.9" cy="47.66" r="47.66"/><circle class="cls-1" cx="50.78" cy="92.25" r="29.88"/></g><g id="Type"><path class="cls-2" d="M362.61,182.39c0,6.65-4.81,34.37-38.26,34.37-16,0-34.82-7.1-41-23.14a7.28,7.28,0,0,1-.46-3.21c0-5.73,5.27-11.23,11.68-11.23a11.18,11.18,0,0,1,8.71,4.35c5.27,7.33,10.77,10.31,20.62,10.77,14.66,0,15.81-10.08,16-11.92,0-7.79-8-11-19-12.14-14-1.6-38-9.16-38-34.37,0-22,18.56-35.05,38.72-35.05a49.34,49.34,0,0,1,22,5.27c2.29,1.14,19,8.71,19,22.68-.46,5.73-5.5,11-11.68,11-5.5,0-7.79-3.67-10.54-7.79-3.21-6.42-12.83-8.48-19.24-8.48-8.48,0-15.81,4.81-15.81,12.6,0,16.5,24.74,5.73,43.76,20.39C357.34,163.14,362.61,173,362.61,182.39Z"/><path class="cls-2" d="M492,159v46.05a11.34,11.34,0,1,1-22.68,0V159a34.83,34.83,0,1,0-69.65,0v46.05a11.34,11.34,0,1,1-22.68,0V159a57.51,57.51,0,0,1,115,0Z"/><path class="cls-2" d="M505.56,159a57.51,57.51,0,1,1,57.51,57.51A57.54,57.54,0,0,1,505.56,159Zm22.68,0a34.82,34.82,0,1,0,34.83-34.83A35,35,0,0,0,528.24,159Z"/><path class="cls-2" d="M784.85,117.32,750.48,209a12.24,12.24,0,0,1-11,7.56A11.37,11.37,0,0,1,728.71,209L704.88,145.5,681.29,209a12.24,12.24,0,0,1-11,7.56A11.36,11.36,0,0,1,659.52,209l-34.37-91.65a11.18,11.18,0,0,1,6.64-14.66,11,11,0,0,1,14.43,6.64l24.06,63.92,23.83-63.46a11.15,11.15,0,0,1,6.87-7.1,9.19,9.19,0,0,1,3.44-.69h2.52a.22.22,0,0,0,.23.23h.46c.23,0,.23,0,.46.23h.46c.23.23.23.23.46.23a10.81,10.81,0,0,1,6.65,7.1l23.83,63.46,24.06-63.92a11.26,11.26,0,0,1,14.66-6.64C783.93,104.72,786.91,111.36,784.85,117.32Z"/><path class="cls-2" d="M914.29,158.56a57.51,57.51,0,0,1-115,0V83.13a11.34,11.34,0,0,1,22.68,0v29.61a57.57,57.57,0,0,1,92.33,45.82Zm-22.68,0a34.83,34.83,0,0,0-69.65-.23v.23a34.82,34.82,0,1,0,69.65,0Z"/><path class="cls-2" d="M1042.13,159.94v44.91a11.07,11.07,0,0,1-11.46,11.46c-4.58,0-11-4.81-11-11.46-9.85,8.25-20.85,11.46-33.91,11.46-32.31,0-58-24.06-58-56.36a57.6,57.6,0,0,1,58-58C1018.07,102,1042.13,127.63,1042.13,159.94Zm-22.45,0c0-19.25-14.66-35.51-33.91-35.51s-35.51,16.27-35.51,35.51,16.27,33.91,35.51,33.91S1019.67,179.18,1019.67,159.94Z"/><path class="cls-2" d="M1055.42,205.3V83.59a11.34,11.34,0,0,1,22.68,0V205.3a11.34,11.34,0,1,1-22.68,0Z"/><path class="cls-2" d="M1092.3,205.3V83.59a11.34,11.34,0,0,1,22.68,0V205.3a11.34,11.34,0,1,1-22.68,0Z"/></g></g></svg>